<?xml version="1.0" encoding="utf-8"?>
<svg viewBox="70 70.001 560.001 559.998" width="560.001" height="559.998" xmlns="http://www.w3.org/2000/svg">
  <g transform="matrix(1, 0, 0, 1, 14.660355, 57.168008)">
    <path d="M 526.266 572.831 L 144.416 572.831 C 120.803 572.8 98.162 563.406 81.467 546.706 C 64.768 530.011 55.373 507.37 55.342 483.757 L 55.342 436.038 C 55.342 429.788 58.677 424.011 64.092 420.886 C 69.506 417.758 76.178 417.758 81.592 420.886 C 87.006 424.011 90.342 429.789 90.342 436.038 L 90.342 483.757 C 90.357 498.093 96.06 511.839 106.197 521.976 C 116.333 532.113 130.08 537.816 144.416 537.831 L 526.266 537.831 C 540.602 537.816 554.348 532.113 564.485 521.976 C 574.622 511.84 580.325 498.093 580.34 483.757 L 580.34 101.907 C 580.324 87.571 574.621 73.825 564.485 63.688 C 554.348 53.551 540.602 47.848 526.266 47.833 L 120.556 47.833 C 112.544 47.833 104.857 51.017 99.193 56.685 C 93.525 62.349 90.341 70.037 90.341 78.048 L 90.341 125.767 C 90.341 132.017 87.005 137.794 81.591 140.923 C 76.177 144.048 69.505 144.048 64.091 140.923 C 58.677 137.794 55.341 132.017 55.341 125.767 L 55.341 78.048 C 55.372 60.763 62.251 44.193 74.478 31.97 C 86.701 19.743 103.271 12.865 120.556 12.833 L 526.266 12.833 C 549.879 12.864 572.52 22.259 589.215 38.958 C 605.914 55.653 615.309 78.294 615.34 101.907 L 615.34 483.757 C 615.309 507.37 605.914 530.011 589.215 546.706 C 572.52 563.405 549.879 572.8 526.266 572.831 Z" style="fill: rgb(255, 255, 255); stroke: rgb(0, 0, 0); stroke-width: 10px;"/>
    <path d="M 392.676 280.461 L 302.727 190.512 C 298.301 186.094 291.852 184.376 285.809 186.001 C 279.769 187.626 275.055 192.352 273.442 198.396 C 271.832 204.443 273.567 210.888 277.996 215.306 L 338.019 275.329 L 72.839 275.329 C 66.585 275.329 60.808 278.665 57.683 284.079 C 54.558 289.493 54.558 296.165 57.683 301.579 C 60.808 306.993 66.586 310.329 72.839 310.329 L 338.019 310.329 L 277.996 370.352 C 273.567 374.77 271.832 381.215 273.442 387.262 C 275.055 393.305 279.77 398.032 285.809 399.657 C 291.852 401.282 298.301 399.563 302.727 395.145 L 392.676 305.196 C 395.953 301.915 397.797 297.466 397.797 292.829 C 397.797 288.193 395.953 283.743 392.676 280.462 L 392.676 280.461 Z" style="fill: rgb(255, 255, 255); stroke: rgb(0, 0, 0); stroke-width: 10px;"/>
  </g>
</svg>