<?xml version="1.0" encoding="utf-8"?>
<svg viewBox="122.402 122.605 455.196 454.79" width="455.196" height="454.79" xmlns="http://www.w3.org/2000/svg">
  <path d="M 473.559 122.609 C 446.895 122.613 420.2 132.765 399.903 153.027 L 302.63 250.132 L 327.376 274.878 L 424.649 177.773 C 451.977 150.492 495.11 150.48 522.403 177.773 C 549.696 205.062 549.704 248.273 522.403 275.527 L 425.13 372.632 L 449.876 397.378 L 547.149 300.273 C 587.774 259.722 587.723 193.603 547.149 153.023 C 526.864 132.738 500.223 122.601 473.559 122.605 L 473.559 122.609 Z M 442.625 232.629 L 232.625 442.629 L 257.371 467.375 L 467.371 257.375 L 442.625 232.629 Z M 250.125 302.629 L 152.852 399.734 C 112.227 440.285 112.278 506.404 152.852 546.984 C 193.426 587.558 259.502 587.507 300.102 546.984 L 397.375 449.879 L 372.629 425.133 L 275.352 522.238 C 248.024 549.519 204.891 549.527 177.598 522.238 C 150.305 494.945 150.297 451.738 177.598 424.484 L 274.871 327.379 L 250.125 302.629 Z" style="fill: rgb(255, 255, 255); stroke: rgb(0, 0, 0); stroke-width: 5px;"/>
</svg>