<?xml version="1.0" encoding="utf-8"?>
<svg viewBox="70 70.001 559.999 559.998" width="559.999" height="559.998" xmlns="http://www.w3.org/2000/svg">
  <g transform="matrix(1, 0, 0, 1, -0.005508, 69.999009)">
    <path d="M 540.93 560 L 159.08 560 C 135.467 559.969 112.826 550.574 96.131 533.875 C 79.432 517.18 70.037 494.539 70.006 470.926 L 70.006 89.076 C 70.037 65.463 79.432 42.822 96.131 26.127 C 112.826 9.428 135.467 0.033 159.08 0.002 L 564.79 0.002 C 582.075 0.033 598.645 6.912 610.868 19.139 C 623.095 31.362 629.973 47.932 630.005 65.217 L 630.005 112.936 C 630.005 119.186 626.669 124.963 621.255 128.092 C 615.841 131.217 609.169 131.217 603.755 128.092 C 598.341 124.963 595.005 119.186 595.005 112.936 L 595.005 65.217 C 595.005 57.205 591.821 49.518 586.153 43.854 C 580.489 38.186 572.801 35.002 564.79 35.002 L 159.08 35.002 C 144.744 35.018 130.998 40.721 120.861 50.857 C 110.724 60.994 105.021 74.74 105.006 89.076 L 105.006 470.926 C 105.022 485.262 110.725 499.008 120.861 509.145 C 130.998 519.282 144.744 524.985 159.08 525 L 540.93 525 C 555.266 524.985 569.012 519.282 579.149 509.145 C 589.286 499.009 594.989 485.262 595.004 470.926 L 595.004 423.207 C 595.004 416.957 598.34 411.18 603.754 408.055 C 609.169 404.927 615.84 404.927 621.254 408.055 C 626.669 411.18 630.004 416.958 630.004 423.207 L 630.004 470.926 C 629.973 494.539 620.579 517.18 603.879 533.875 C 587.184 550.574 564.543 559.969 540.93 560 Z" style="fill: rgb(255, 255, 255); stroke: rgb(0, 0, 0); stroke-width: 10px;"/>
    <path d="M 622.12 267.63 L 532.171 177.681 C 527.694 173.529 521.378 172.009 515.503 173.673 C 509.628 175.337 505.046 179.943 503.409 185.821 C 501.772 191.704 503.323 198.016 507.495 202.473 L 567.46 262.496 L 302.28 262.496 C 296.026 262.496 290.249 265.832 287.124 271.246 C 283.995 276.66 283.995 283.332 287.124 288.746 C 290.249 294.16 296.026 297.496 302.28 297.496 L 567.46 297.496 L 507.495 357.519 C 503.065 361.937 501.331 368.382 502.944 374.429 C 504.554 380.472 509.268 385.199 515.311 386.824 C 521.35 388.449 527.799 386.73 532.229 382.313 L 622.12 292.364 C 625.397 289.082 627.237 284.633 627.237 279.996 C 627.237 275.36 625.398 270.911 622.12 267.629 L 622.12 267.63 Z" style="fill: rgb(255, 255, 255); stroke: rgb(0, 0, 0); stroke-width: 10px;"/>
  </g>
</svg>