<?xml version="1.0" encoding="utf-8"?>
<svg viewBox="70 70 560 560" width="560" height="560" xmlns="http://www.w3.org/2000/svg">
  <path d="M 567.775 101.11 L 132.225 101.11 C 115.183 101.11 101.11 115.183 101.11 132.225 L 101.11 567.775 C 101.11 584.817 115.183 598.89 132.225 598.89 L 567.775 598.89 C 584.817 598.89 598.89 584.817 598.89 567.775 L 598.89 132.225 C 598.89 115.183 584.817 101.11 567.775 101.11 Z M 567.775 70 C 602 70 630 98 630 132.225 L 630 567.775 C 630 602 602 630 567.775 630 L 132.225 630 C 98 630 70 602 70 567.775 L 70 132.225 C 70 98 98 70 132.225 70 L 567.775 70 Z" style="fill: rgb(255, 255, 255); stroke: rgb(0, 0, 0); stroke-width: 10px;"/>
</svg>