<?xml version="1.0" encoding="utf-8"?>
<svg viewBox="0 0 700 700" width="700" height="700" fill="white" xmlns="http://www.w3.org/2000/svg">
  <path d="M 563.77 388.956 L 181.3 609.746 C 174.171 613.895 166.464 615.969 158.773 615.969 C 151.023 615.914 143.328 613.868 136.253 609.778 L 135.394 609.235 C 128.734 605.192 123.417 599.762 119.71 593.368 C 115.796 586.633 113.706 578.934 113.706 570.782 L 113.706 129.162 C 113.706 121.006 115.796 113.307 119.69 106.56 L 120.245 105.681 C 124.081 99.396 129.511 94.091 136.265 90.185 C 143.328 86.075 151.023 84.029 158.773 84.033 C 166.464 83.974 174.171 86.048 181.316 90.177 L 563.766 310.987 C 570.825 315.069 576.434 320.71 580.313 327.444 C 584.204 334.19 586.294 341.862 586.294 349.971 C 586.294 358.08 584.204 365.752 580.313 372.498 C 576.43 379.232 570.821 384.873 563.766 388.955 L 563.77 388.956 Z"/>
</svg>