<?xml version="1.0" encoding="utf-8"?>
<svg viewBox="122.397 122.498 455.205 455.004" width="455.205" height="455.004" xmlns="http://www.w3.org/2000/svg">
  <path d="M 244.999 122.498 L 244.999 209.998 L 279.999 209.998 L 279.999 122.498 L 244.999 122.498 Z M 473.559 122.631 C 446.895 122.635 420.2 132.787 399.903 153.049 L 302.63 250.154 L 327.376 274.9 L 424.649 177.795 C 451.977 150.514 495.11 150.506 522.403 177.795 C 549.696 205.088 549.704 248.295 522.403 275.549 L 425.13 372.654 L 449.876 397.4 L 547.153 300.295 C 587.778 259.744 587.727 193.625 547.153 153.045 C 526.868 132.76 500.227 122.619 473.563 122.627 L 473.559 122.631 Z M 152.369 127.659 L 127.623 152.405 L 197.623 222.405 L 222.369 197.659 L 152.369 127.659 Z M 122.494 245.029 L 122.494 280.029 L 209.998 280.029 L 209.998 245.029 L 122.494 245.029 Z M 250.124 302.658 L 152.847 399.763 C 112.222 440.314 112.273 506.433 152.847 547.013 C 193.421 587.587 259.497 587.536 300.097 547.013 L 397.37 449.908 L 372.624 425.162 L 275.351 522.267 C 248.023 549.548 204.89 549.556 177.597 522.267 C 150.304 494.974 150.296 451.767 177.597 424.513 L 274.87 327.408 L 250.124 302.658 Z M 489.994 419.998 L 489.994 454.998 L 577.494 454.998 L 577.494 419.998 L 489.994 419.998 Z M 502.365 477.627 L 477.619 502.373 L 547.619 572.373 L 572.365 547.627 L 502.365 477.627 Z M 419.994 490.002 L 419.994 577.502 L 454.998 577.494 L 454.998 489.994 L 419.994 490.002 Z" style="fill: rgb(255, 255, 255); stroke: rgb(0, 0, 0); stroke-width: 5px;"/>
</svg>